<svg xmlns="http://www.w3.org/2000/svg" viewBox="0 0 128 128">
  <defs>
    <linearGradient id="gold" x1="0%" y1="0%" x2="100%" y2="100%">
      <stop offset="0%" stop-color="#f4d58d"/>
      <stop offset="50%" stop-color="#d4af37"/>
      <stop offset="100%" stop-color="#c9a961"/>
    </linearGradient>
    <filter id="glow">
      <feGaussianBlur stdDeviation="3" result="blur"/>
      <feMerge>
        <feMergeNode in="blur"/>
        <feMergeNode in="SourceGraphic"/>
      </feMerge>
    </filter>
  </defs>
  <!-- Background circle -->
  <circle cx="64" cy="64" r="62" fill="#0f0d0a"/>
  <circle cx="64" cy="64" r="60" fill="none" stroke="url(#gold)" stroke-width="1.5" opacity="0.4"/>
  <!-- J letter -->
  <g filter="url(#glow)">
    <path d="M 38 24 L 72 24 L 72 34 L 58 34 L 58 80 Q 58 92 50 98 Q 42 104 32 102 L 32 90 Q 38 92 42 88 Q 46 84 46 78 L 46 34 L 38 34 Z" 
          fill="url(#gold)"/>
    <!-- } curly brace integrated -->
    <path d="M 74 30 Q 82 30 86 36 Q 90 42 90 50 L 90 56 Q 90 60 94 62 L 98 64 L 94 66 Q 90 68 90 72 L 90 78 Q 90 86 86 92 Q 82 98 74 98 L 74 90 Q 78 90 80 86 Q 82 82 82 78 L 82 72 Q 82 66 86 62 L 87 61 L 87 67 L 86 66 Q 82 62 82 56 L 82 50 Q 82 46 80 42 Q 78 38 74 38 Z" 
          fill="url(#gold)" opacity="0.85"/>
  </g>
</svg>
